<?xml version="1.0" encoding="UTF-8" standalone="no"?>
<svg
   xmlns:dc="http://purl.org/dc/elements/1.1/"
   xmlns:cc="http://creativecommons.org/ns#"
   xmlns:rdf="http://www.w3.org/1999/02/22-rdf-syntax-ns#"
   xmlns:svg="http://www.w3.org/2000/svg"
   xmlns="http://www.w3.org/2000/svg"
   xmlns:sodipodi="http://sodipodi.sourceforge.net/DTD/sodipodi-0.dtd"
   xmlns:inkscape="http://www.inkscape.org/namespaces/inkscape"
   width="16"
   height="16"
   fill="currentColor"
   class="bi bi-chat-right-quote"
   viewBox="0 0 16 16"
   version="1.1"
   id="svg6"
   sodipodi:docname="chat-right-quote.svg"
   inkscape:version="1.0.2 (e86c870879, 2021-01-15)">
  <metadata
     id="metadata12">
    <rdf:RDF>
      <cc:Work
         rdf:about="">
        <dc:format>image/svg+xml</dc:format>
        <dc:type
           rdf:resource="http://purl.org/dc/dcmitype/StillImage" />
      </cc:Work>
    </rdf:RDF>
  </metadata>
  <defs
     id="defs10" />
  <sodipodi:namedview
     pagecolor="#ffffff"
     bordercolor="#666666"
     borderopacity="1"
     objecttolerance="10"
     gridtolerance="10"
     guidetolerance="10"
     inkscape:pageopacity="0"
     inkscape:pageshadow="2"
     inkscape:window-width="1920"
     inkscape:window-height="1016"
     id="namedview8"
     showgrid="false"
     inkscape:zoom="16"
     inkscape:cx="17.044943"
     inkscape:cy="18.553134"
     inkscape:window-x="0"
     inkscape:window-y="27"
     inkscape:window-maximized="1"
     inkscape:current-layer="svg6" />
  <g
     id="g892"
     transform="matrix(1.9357358,0,0,1.9357358,-0.82678004,-53.599847)">
    <g
       id="g878">
      <path
         style="fill:none;stroke:#000000;stroke-width:0.2;stroke-linecap:round;stroke-linejoin:miter;stroke-miterlimit:4;stroke-dasharray:none"
         id="path865"
         sodipodi:type="arc"
         sodipodi:cx="3.1586971"
         sodipodi:cy="30.840958"
         sodipodi:rx="1.1301243"
         sodipodi:ry="1.1301243"
         sodipodi:start="1.2704412"
         sodipodi:end="6.2799713"
         sodipodi:open="true"
         sodipodi:arc-type="arc"
         d="m 3.4930551,31.920488 a 1.1301243,1.1301243 0 0 1 -1.2549495,-0.424021 1.1301243,1.1301243 0 0 1 0.00983,-1.324612 1.1301243,1.1301243 0 0 1 1.2611054,-0.405346 1.1301243,1.1301243 0 0 1 0.7797727,1.070816" />
      <path
         style="fill:none;stroke:#000000;stroke-width:0.2;stroke-linecap:round;stroke-linejoin:round;stroke-miterlimit:4;stroke-dasharray:none;stroke-opacity:1"
         d="m 3.4930551,31.920488 c -0.2020107,1.396666 -0.726197,2.01358 -0.726197,2.01358 0,0 1.5395712,-0.805433 1.5208373,-3.065059"
         id="path867"
         sodipodi:nodetypes="ccc" />
    </g>
    <g
       id="g884"
       transform="translate(2.8022597)">
      <path
         style="fill:none;stroke:#000000;stroke-width:0.2;stroke-linecap:round;stroke-linejoin:miter;stroke-miterlimit:4;stroke-dasharray:none"
         id="path880"
         sodipodi:type="arc"
         sodipodi:cx="3.1586971"
         sodipodi:cy="30.840958"
         sodipodi:rx="1.1301243"
         sodipodi:ry="1.1301243"
         sodipodi:start="1.2704412"
         sodipodi:end="6.2799713"
         sodipodi:open="true"
         sodipodi:arc-type="arc"
         d="m 3.4930551,31.920488 a 1.1301243,1.1301243 0 0 1 -1.2549495,-0.424021 1.1301243,1.1301243 0 0 1 0.00983,-1.324612 1.1301243,1.1301243 0 0 1 1.2611054,-0.405346 1.1301243,1.1301243 0 0 1 0.7797727,1.070816" />
      <path
         style="fill:none;stroke:#000000;stroke-width:0.2;stroke-linecap:round;stroke-linejoin:round;stroke-miterlimit:4;stroke-dasharray:none;stroke-opacity:1"
         d="m 3.4930551,31.920488 c -0.2020107,1.396666 -0.726197,2.01358 -0.726197,2.01358 0,0 1.5395712,-0.805433 1.5208373,-3.065059"
         id="path882"
         sodipodi:nodetypes="ccc" />
    </g>
  </g>
</svg>
