<?xml version="1.0" encoding="utf-8"?>
<svg version="1.1" id="acessibilidade_onu" xmlns="http://www.w3.org/2000/svg" xmlns:xlink="http://www.w3.org/1999/xlink" x="0px" y="0px" viewBox="0 0 1000 1000" style="enable-background:new 0 0 1000 1000;" xml:space="preserve">
	<style type="text/css">
		.c1 {fill: none;}
		.c2 {fill: #53C2EE;}
		.c1,.c2 {stroke: #000;stroke-miterlimit: 10;stroke-width: 32.8947px;}
	</style>
	<g id="limbs" class="c1">
		<path id="arms" d="M105.7,408.6c0,0,393.3,238.2,786.6,0"/>
		<line id="right_leg" x1="739.6" y1="876.6" x2="500" y2="520.2"/>
		<line id="left_leg"  x1="260.2" y1="876.6" x2="500" y2="520.2"/>
	</g>
	<g id="circles" class="c2" >
		<circle id="head"       cx="500"   cy="284.3" r="114.9"/>
		<circle id="right_hand" cx="932.2" cy="374.1" r="51.3"/>
		<circle id="left_hand"  cx="67.6"  cy="374.1" r="51.3"/>
		<circle id="right_foot" cx="739.6" cy="876.6" r="51.3"/>
		<circle id="left_foot"  cx="260.2" cy="876.6" r="51.3"/>
	</g>
	<g id="arcs">
		<path id="right_arc" d="M807.6,802.4c8.2,7.5,15.1,16.3,20.5,26.1c87.3-87,136.2-205.3,135.9-328.6c0-10.1-0.4-20.1-1-30.1
			c-9.9,3.2-20.3,4.8-30.8,4.8c-0.6,0-1.3,0-1.9,0c0.5,8.4,0.8,16.8,0.8,25.3C931.3,613.1,887,721.8,807.6,802.4z"/>
		<path id="bottom_arc" d="M498.6,932.4c-48.7,0.1-97-8.1-143-24.1c-3.5,10.6-8.8,20.5-15.5,29.4c103.1,37,216,36.8,319-0.7
			c-6.7-8.9-11.8-18.9-15.2-29.5C597.2,924,548.1,932.4,498.6,932.4z"/>
		<path id="left_arc" d="M67,474.7c-11.1-0.1-22.1-2-32.6-5.6c-0.7,10.2-1,20.5-1,30.9C33,623.5,82.1,741.9,169.6,829
			c0.4,0.4,0.8,0.8,1.2,1.2c5.2-9.9,11.9-18.9,20-26.5C110.8,723,66,613.7,66.3,500C66.3,491.5,66.5,483.1,67,474.7z"/>
		<path id="top_arc" d="M827.6,171c-181.7-181.7-476.3-181.7-658,0c0,0,0,0,0,0c-31.2,31.1-57.8,66.5-79.1,105.2
			c10.8,2.5,21.1,6.8,30.5,12.7c19.5-34.7,43.7-66.5,71.8-94.6c168.9-168.9,442.6-168.9,611.5,0c0,0,0,0,0,0
			c28.5,28.4,52.9,60.7,72.5,95.8c9.2-6.1,19.4-10.6,30.2-13.4C885.7,237.9,859,202.3,827.6,171z"/>
		</g>
</svg>